<?xml version="1.0" encoding="UTF-8" standalone="no"?>
<svg xmlns:ffdec="https://www.free-decompiler.com/flash" xmlns:xlink="http://www.w3.org/1999/xlink" ffdec:objectType="shape" height="12.0px" width="20.9px" xmlns="http://www.w3.org/2000/svg">
  <g transform="matrix(1.0, 0.0, 0.0, 1.0, 0.0, 0.0)">
    <path d="M0.0 1.0 L0.0 0.0 16.9 0.0 Q20.9 0.0 20.9 4.0 L20.9 11.0 19.9 11.0 19.9 4.0 Q19.9 1.8 18.3 1.2 L17.05 1.0 0.0 1.0" fill="url(#gradient0)" fill-rule="evenodd" stroke="none"/>
    <path d="M0.0 11.0 L0.0 1.0 17.05 1.0 18.3 1.2 Q19.9 1.8 19.9 4.0 L19.9 11.0 0.0 11.0" fill="url(#gradient1)" fill-rule="evenodd" stroke="none"/>
    <path d="M20.9 11.0 L20.9 12.0 0.0 12.0 0.0 11.0 19.9 11.0 20.9 11.0" fill="#008ae0" fill-rule="evenodd" stroke="none"/>
  </g>
  <defs>
    <linearGradient gradientTransform="matrix(0.0, -0.0134, 0.0134, 0.0, 9.9, 11.0)" gradientUnits="userSpaceOnUse" id="gradient0" spreadMethod="pad" x1="-819.2" x2="819.2">
      <stop offset="0.0" stop-color="#0075bf"/>
      <stop offset="0.9921568627450981" stop-color="#009dff"/>
    </linearGradient>
    <linearGradient gradientTransform="matrix(0.0, -0.0134, 0.0134, 0.0, 9.95, 11.0)" gradientUnits="userSpaceOnUse" id="gradient1" spreadMethod="pad" x1="-819.2" x2="819.2">
      <stop offset="0.0" stop-color="#99d7fe"/>
      <stop offset="1.0" stop-color="#d9f0fe"/>
    </linearGradient>
  </defs>
</svg>
