<?xml version="1.0" encoding="UTF-8" standalone="no"?>
<svg xmlns:ffdec="https://www.free-decompiler.com/flash" xmlns:xlink="http://www.w3.org/1999/xlink" ffdec:objectType="shape" height="12.0px" width="21.0px" xmlns="http://www.w3.org/2000/svg">
  <g transform="matrix(1.0, 0.0, 0.0, 1.0, 0.0, 0.0)">
    <path d="M21.0 11.0 L20.0 11.0 20.0 4.0 Q20.0 2.55 19.3 1.8 18.55 1.05 17.15 1.0 L0.05 1.0 0.05 0.0 17.0 0.0 Q21.0 0.0 21.0 4.0 L21.0 11.0" fill="url(#gradient0)" fill-rule="evenodd" stroke="none"/>
    <path d="M21.0 11.0 L21.0 12.0 0.0 12.0 0.0 11.0 20.0 11.0 21.0 11.0" fill="#008ae0" fill-rule="evenodd" stroke="none"/>
    <path d="M20.0 11.0 L0.0 11.0 0.0 1.0 0.05 1.0 17.15 1.0 Q18.55 1.05 19.3 1.8 20.0 2.55 20.0 4.0 L20.0 11.0" fill="url(#gradient1)" fill-rule="evenodd" stroke="none"/>
  </g>
  <defs>
    <linearGradient gradientTransform="matrix(0.0, -0.0134, 0.0134, 0.0, 10.0, 11.0)" gradientUnits="userSpaceOnUse" id="gradient0" spreadMethod="pad" x1="-819.2" x2="819.2">
      <stop offset="0.0" stop-color="#0075bf"/>
      <stop offset="0.9921568627450981" stop-color="#009dff"/>
    </linearGradient>
    <linearGradient gradientTransform="matrix(0.0, -0.0134, 0.0135, 0.0, 10.0, 11.0)" gradientUnits="userSpaceOnUse" id="gradient1" spreadMethod="pad" x1="-819.2" x2="819.2">
      <stop offset="0.0" stop-color="#eeeeee" stop-opacity="0.6509804"/>
      <stop offset="1.0" stop-color="#ffffff" stop-opacity="0.7529412"/>
    </linearGradient>
  </defs>
</svg>
